G04 #@! TF.GenerationSoftware,KiCad,Pcbnew,(5.0.0)*
G04 #@! TF.CreationDate,2018-11-04T19:00:02+09:00*
G04 #@! TF.ProjectId,v4220m-eval,76343232306D5F636F6465632E6B6963,rev?*
G04 #@! TF.SameCoordinates,PX2d4cae0PY61c06a0*
G04 #@! TF.FileFunction,Copper,L2,Bot,Signal*
G04 #@! TF.FilePolarity,Positive*
%FSLAX46Y46*%
G04 Gerber Fmt 4.6, Leading zero omitted, Abs format (unit mm)*
G04 Created by KiCad (PCBNEW (5.0.0)) date 11/04/18 19:00:02*
%MOMM*%
%LPD*%
G01*
G04 APERTURE LIST*
G04 #@! TA.AperFunction,ComponentPad*
%ADD10R,2.500000X1.800000*%
G04 #@! TD*
G04 #@! TA.AperFunction,ComponentPad*
%ADD11O,2.500000X1.800000*%
G04 #@! TD*
G04 #@! TA.AperFunction,ComponentPad*
%ADD12O,1.800000X2.500000*%
G04 #@! TD*
G04 #@! TA.AperFunction,ComponentPad*
%ADD13R,1.800000X2.500000*%
G04 #@! TD*
G04 #@! TA.AperFunction,ViaPad*
%ADD14C,1.000000*%
G04 #@! TD*
G04 #@! TA.AperFunction,Conductor*
%ADD15C,0.300000*%
G04 #@! TD*
G04 #@! TA.AperFunction,Conductor*
%ADD16C,0.500000*%
G04 #@! TD*
G04 APERTURE END LIST*
D10*
G04 #@! TO.P,J4,1*
G04 #@! TO.N,GND*
X5500000Y18625000D03*
D11*
G04 #@! TO.P,J4,2*
G04 #@! TO.N,VDDF*
X5500000Y21165000D03*
G04 #@! TO.P,J4,3*
G04 #@! TO.N,/DOUT*
X5500000Y23705000D03*
G04 #@! TO.P,J4,4*
G04 #@! TO.N,/DIN*
X5500000Y26245000D03*
G04 #@! TO.P,J4,5*
G04 #@! TO.N,/SCLK*
X5500000Y28785000D03*
G04 #@! TO.P,J4,6*
G04 #@! TO.N,/LRCK*
X5500000Y31325000D03*
G04 #@! TO.P,J4,7*
G04 #@! TO.N,/XTI*
X5500000Y33865000D03*
G04 #@! TO.P,J4,8*
G04 #@! TO.N,/RSTN*
X5500000Y36405000D03*
G04 #@! TD*
D12*
G04 #@! TO.P,J1,2*
G04 #@! TO.N,/POWER*
X26235000Y5500000D03*
D13*
G04 #@! TO.P,J1,1*
G04 #@! TO.N,GNDA*
X28775000Y5500000D03*
G04 #@! TD*
D11*
G04 #@! TO.P,J2,2*
G04 #@! TO.N,/v4220m-eval_inputbuffer/ANALOG_LIN*
X49500000Y24770000D03*
D10*
G04 #@! TO.P,J2,1*
G04 #@! TO.N,GNDA*
X49500000Y22230000D03*
G04 #@! TD*
G04 #@! TO.P,J3,1*
G04 #@! TO.N,GNDA*
X49500000Y14240000D03*
D11*
G04 #@! TO.P,J3,2*
G04 #@! TO.N,/v4220m-eval_inputbuffer/ANALOG_RIN*
X49500000Y16780000D03*
G04 #@! TD*
G04 #@! TO.P,J5,2*
G04 #@! TO.N,/v4220m-eval_outputbuffer/ANALOG_LOUT*
X49500000Y40750000D03*
D10*
G04 #@! TO.P,J5,1*
G04 #@! TO.N,GNDA*
X49500000Y38210000D03*
G04 #@! TD*
G04 #@! TO.P,J6,1*
G04 #@! TO.N,GNDA*
X49500000Y30220000D03*
D11*
G04 #@! TO.P,J6,2*
G04 #@! TO.N,/v4220m-eval_outputbuffer/ANALOG_ROUT*
X49500000Y32760000D03*
G04 #@! TD*
D14*
G04 #@! TO.N,GNDA*
X34500000Y39300000D03*
X31250000Y39250000D03*
X27000000Y47000000D03*
X27000000Y43100000D03*
X35400000Y24200000D03*
X35400000Y34300000D03*
X25550000Y27700000D03*
X25000000Y51300000D03*
X29000000Y51300000D03*
X33000000Y51300000D03*
X39500000Y27250000D03*
X36750000Y4000000D03*
X32000000Y4000000D03*
X41500000Y4000000D03*
X41500000Y6500000D03*
X36750000Y6500000D03*
X34500000Y8500000D03*
X32000000Y6500000D03*
X39250000Y34250000D03*
X39000000Y41750000D03*
X30300000Y8600000D03*
X25300000Y17100000D03*
X21250000Y45000000D03*
X21250000Y48000000D03*
X21250000Y42000000D03*
X21250000Y39000000D03*
X21250000Y36000000D03*
X46500000Y33750000D03*
X41500000Y48250000D03*
X35750000Y49750000D03*
X39250000Y49750000D03*
X37500000Y51250000D03*
X41500000Y51250000D03*
X36000000Y46000002D03*
X39000000Y46000000D03*
X43000000Y43000000D03*
X46000000Y41500000D03*
X42500000Y33750000D03*
X42500000Y36500000D03*
X46500000Y36500000D03*
X39500000Y29000000D03*
X46750000Y29000000D03*
X46750000Y26500000D03*
X43000000Y29000000D03*
X43000000Y26500000D03*
X43250000Y18250000D03*
X43250000Y21250000D03*
X46000000Y21250000D03*
X46000000Y18250000D03*
X40500000Y18250000D03*
X40500000Y21250000D03*
X39500000Y13000000D03*
X43000000Y13000000D03*
X24300000Y8400000D03*
X24000000Y4000000D03*
X31250000Y13000000D03*
G04 #@! TO.N,VDDA*
X37500000Y28250000D03*
X39000000Y19500018D03*
X34500000Y12500000D03*
X37500000Y43249902D03*
G04 #@! TO.N,VDD*
X20500000Y12000000D03*
X19300000Y19500000D03*
G04 #@! TO.N,GND*
X13500000Y14250000D03*
X17500000Y14250000D03*
X18000000Y21250000D03*
X21499996Y14300000D03*
X7100000Y38900000D03*
X13500000Y4000000D03*
X17500000Y4000000D03*
X21500000Y4000000D03*
X21500000Y6500000D03*
X13500000Y6500000D03*
X17500000Y8500000D03*
X12500000Y11499998D03*
X4000000Y13500000D03*
X7000002Y13500000D03*
X10000000Y13500000D03*
X4000000Y16000000D03*
X7000000Y16000000D03*
X9500000Y20000000D03*
X10500000Y29000000D03*
X13500000Y51000002D03*
X18500000Y51000000D03*
X16000000Y51000000D03*
X18500000Y48000000D03*
X18500000Y45000000D03*
X18500000Y42000000D03*
X18500000Y39000000D03*
X18500000Y36000000D03*
X13500000Y48000000D03*
X13500000Y45000000D03*
X4000000Y41500000D03*
X4000000Y39000000D03*
X7000000Y41500000D03*
X10000002Y41500000D03*
X12000000Y43000002D03*
X9500000Y37000000D03*
X12000000Y37000000D03*
X15000000Y36000000D03*
G04 #@! TO.N,Net-(C20-Pad1)*
X37000000Y16750000D03*
X37000000Y14250000D03*
X37000000Y26750000D03*
G04 #@! TO.N,Net-(R6-Pad2)*
X17500000Y19300000D03*
X15299998Y21500000D03*
G04 #@! TO.N,Net-(R8-Pad2)*
X26850000Y23400000D03*
X23500000Y19050006D03*
G04 #@! TO.N,/v4220m-eval_outputbuffer/CODEC_LOUT_N*
X24011404Y37011404D03*
X22750000Y50000000D03*
G04 #@! TO.N,/v4220m-eval_outputbuffer/CODEC_ROUT_P*
X24000000Y38500000D03*
X25000000Y29500012D03*
G04 #@! TO.N,VDDF*
X11750000Y22575000D03*
X15500000Y13250000D03*
G04 #@! TD*
D15*
G04 #@! TO.N,*
X19260000Y32080000D02*
X20760000Y32080000D01*
X22000000Y10500000D02*
X23500000Y10500000D01*
D16*
G04 #@! TO.N,VDDA*
X35207106Y12500000D02*
X34500000Y12500000D01*
X36656002Y12500000D02*
X35207106Y12500000D01*
X38000000Y13843998D02*
X36656002Y12500000D01*
X39000000Y19500018D02*
X38000000Y18500018D01*
X38000000Y18500018D02*
X38000000Y13843998D01*
X38999982Y19500018D02*
X39000000Y19500018D01*
X38000000Y20500000D02*
X38999982Y19500018D01*
X37500000Y28250000D02*
X38000000Y27750000D01*
X38000000Y27750000D02*
X38000000Y20500000D01*
X37500000Y28250000D02*
X37500000Y43249902D01*
G04 #@! TO.N,VDD*
X19300000Y13200000D02*
X19300000Y19500000D01*
X20500000Y12000000D02*
X19300000Y13200000D01*
D15*
G04 #@! TO.N,Net-(C20-Pad1)*
X37000000Y16750000D02*
X37000000Y14250000D01*
X37000000Y16750000D02*
X37000000Y26750000D01*
G04 #@! TO.N,Net-(R6-Pad2)*
X15799997Y21000001D02*
X15299998Y21500000D01*
X17500000Y19300000D02*
X16999999Y19799999D01*
X16999999Y19799999D02*
X15799997Y21000001D01*
G04 #@! TO.N,Net-(R8-Pad2)*
X23500006Y19050006D02*
X23500000Y19050006D01*
X25400000Y20950000D02*
X23500006Y19050006D01*
X26850000Y23400000D02*
X25400000Y21950000D01*
X25400000Y21950000D02*
X25400000Y20950000D01*
G04 #@! TO.N,/v4220m-eval_outputbuffer/CODEC_LOUT_N*
X22750000Y49292894D02*
X22750000Y50000000D01*
X22750000Y38272808D02*
X22750000Y49292894D01*
X24011404Y37011404D02*
X22750000Y38272808D01*
G04 #@! TO.N,/v4220m-eval_outputbuffer/CODEC_ROUT_P*
X25000000Y30207118D02*
X25000000Y29500012D01*
X25000000Y37500000D02*
X25000000Y30207118D01*
X24000000Y38500000D02*
X25000000Y37500000D01*
D16*
G04 #@! TO.N,VDDF*
X11750000Y22575000D02*
X11750000Y19000000D01*
X11750000Y19000000D02*
X15500000Y15250000D01*
X15500000Y15250000D02*
X15500000Y13250000D01*
G04 #@! TD*
D15*
G04 #@! TO.N,GND*
G36*
X19550000Y21300000D02*
X19552882Y21270736D01*
X19561418Y21242597D01*
X19575280Y21216664D01*
X19593934Y21193934D01*
X22350000Y18437868D01*
X22350000Y3250000D01*
X12650000Y3250000D01*
X12650000Y10000000D01*
X12647118Y10029264D01*
X12638582Y10057403D01*
X12624720Y10083336D01*
X12606066Y10106066D01*
X10106066Y12606066D01*
X10083336Y12624720D01*
X10057403Y12638582D01*
X10029264Y12647118D01*
X10000000Y12650000D01*
X3250000Y12650000D01*
X3250000Y18362500D01*
X3600000Y18362500D01*
X3600000Y17660980D01*
X3624979Y17535402D01*
X3673978Y17417109D01*
X3745112Y17310649D01*
X3835649Y17220112D01*
X3942110Y17148977D01*
X4060402Y17099979D01*
X4185981Y17075000D01*
X5237500Y17075000D01*
X5400000Y17237500D01*
X5400000Y18525000D01*
X5600000Y18525000D01*
X5600000Y17237500D01*
X5762500Y17075000D01*
X6814019Y17075000D01*
X6939598Y17099979D01*
X7057890Y17148977D01*
X7164351Y17220112D01*
X7254888Y17310649D01*
X7326022Y17417109D01*
X7375021Y17535402D01*
X7400000Y17660980D01*
X7400000Y18362500D01*
X7237500Y18525000D01*
X5600000Y18525000D01*
X5400000Y18525000D01*
X3762500Y18525000D01*
X3600000Y18362500D01*
X3250000Y18362500D01*
X3250000Y36405000D01*
X3592501Y36405000D01*
X3622428Y36101147D01*
X3711059Y35808971D01*
X3854987Y35539700D01*
X4048682Y35303682D01*
X4254222Y35135000D01*
X4048682Y34966318D01*
X3854987Y34730300D01*
X3711059Y34461029D01*
X3622428Y34168853D01*
X3592501Y33865000D01*
X3622428Y33561147D01*
X3711059Y33268971D01*
X3854987Y32999700D01*
X4048682Y32763682D01*
X4254222Y32595000D01*
X4048682Y32426318D01*
X3854987Y32190300D01*
X3711059Y31921029D01*
X3622428Y31628853D01*
X3592501Y31325000D01*
X3622428Y31021147D01*
X3711059Y30728971D01*
X3854987Y30459700D01*
X4048682Y30223682D01*
X4254222Y30055000D01*
X4048682Y29886318D01*
X3854987Y29650300D01*
X3711059Y29381029D01*
X3622428Y29088853D01*
X3592501Y28785000D01*
X3622428Y28481147D01*
X3711059Y28188971D01*
X3854987Y27919700D01*
X4048682Y27683682D01*
X4254222Y27515000D01*
X4048682Y27346318D01*
X3854987Y27110300D01*
X3711059Y26841029D01*
X3622428Y26548853D01*
X3592501Y26245000D01*
X3622428Y25941147D01*
X3711059Y25648971D01*
X3854987Y25379700D01*
X4048682Y25143682D01*
X4254222Y24975000D01*
X4048682Y24806318D01*
X3854987Y24570300D01*
X3711059Y24301029D01*
X3622428Y24008853D01*
X3592501Y23705000D01*
X3622428Y23401147D01*
X3711059Y23108971D01*
X3854987Y22839700D01*
X4048682Y22603682D01*
X4254222Y22435000D01*
X4048682Y22266318D01*
X3854987Y22030300D01*
X3711059Y21761029D01*
X3622428Y21468853D01*
X3592501Y21165000D01*
X3622428Y20861147D01*
X3711059Y20568971D01*
X3854987Y20299700D01*
X3998775Y20124494D01*
X3942110Y20101023D01*
X3835649Y20029888D01*
X3745112Y19939351D01*
X3673978Y19832891D01*
X3624979Y19714598D01*
X3600000Y19589020D01*
X3600000Y18887500D01*
X3762500Y18725000D01*
X5400000Y18725000D01*
X5400000Y18745000D01*
X5600000Y18745000D01*
X5600000Y18725000D01*
X7237500Y18725000D01*
X7400000Y18887500D01*
X7400000Y19589020D01*
X7375021Y19714598D01*
X7326022Y19832891D01*
X7254888Y19939351D01*
X7164351Y20029888D01*
X7057890Y20101023D01*
X7001225Y20124494D01*
X7145013Y20299700D01*
X7288941Y20568971D01*
X7377572Y20861147D01*
X7407499Y21165000D01*
X7377572Y21468853D01*
X7288941Y21761029D01*
X7145013Y22030300D01*
X6951318Y22266318D01*
X6745778Y22435000D01*
X6951318Y22603682D01*
X7020733Y22688265D01*
X10600000Y22688265D01*
X10600000Y22461735D01*
X10644194Y22239557D01*
X10730884Y22030271D01*
X10850000Y21852000D01*
X10850001Y19044216D01*
X10845646Y19000000D01*
X10863023Y18823570D01*
X10914487Y18653919D01*
X10998057Y18497569D01*
X11082345Y18394863D01*
X11082348Y18394860D01*
X11110526Y18360525D01*
X11144861Y18332347D01*
X14600000Y14877208D01*
X14600001Y13973000D01*
X14480884Y13794729D01*
X14394194Y13585443D01*
X14350000Y13363265D01*
X14350000Y13136735D01*
X14394194Y12914557D01*
X14480884Y12705271D01*
X14606737Y12516918D01*
X14766918Y12356737D01*
X14955271Y12230884D01*
X15164557Y12144194D01*
X15386735Y12100000D01*
X15613265Y12100000D01*
X15835443Y12144194D01*
X16044729Y12230884D01*
X16233082Y12356737D01*
X16393263Y12516918D01*
X16519116Y12705271D01*
X16605806Y12914557D01*
X16650000Y13136735D01*
X16650000Y13363265D01*
X16605806Y13585443D01*
X16519116Y13794729D01*
X16400000Y13972999D01*
X16400000Y15205793D01*
X16404354Y15250000D01*
X16386977Y15426431D01*
X16335514Y15596080D01*
X16335514Y15596081D01*
X16251943Y15752432D01*
X16139475Y15889475D01*
X16105136Y15917656D01*
X12650000Y19372792D01*
X12650000Y21613265D01*
X14149998Y21613265D01*
X14149998Y21386735D01*
X14194192Y21164557D01*
X14280882Y20955271D01*
X14406735Y20766918D01*
X14566916Y20606737D01*
X14755269Y20480884D01*
X14964555Y20394194D01*
X15186733Y20350000D01*
X15318628Y20350000D01*
X16350000Y19318627D01*
X16350000Y19186735D01*
X16394194Y18964557D01*
X16480884Y18755271D01*
X16606737Y18566918D01*
X16766918Y18406737D01*
X16955271Y18280884D01*
X17164557Y18194194D01*
X17386735Y18150000D01*
X17613265Y18150000D01*
X17835443Y18194194D01*
X18044729Y18280884D01*
X18233082Y18406737D01*
X18393263Y18566918D01*
X18400001Y18577002D01*
X18400000Y13244207D01*
X18395646Y13200000D01*
X18413023Y13023570D01*
X18464486Y12853920D01*
X18548057Y12697569D01*
X18660525Y12560525D01*
X18694865Y12532343D01*
X19352366Y11874842D01*
X19394194Y11664557D01*
X19480884Y11455271D01*
X19606737Y11266918D01*
X19766918Y11106737D01*
X19955271Y10980884D01*
X20164557Y10894194D01*
X20386735Y10850000D01*
X20613265Y10850000D01*
X20835443Y10894194D01*
X21044729Y10980884D01*
X21233082Y11106737D01*
X21393263Y11266918D01*
X21519116Y11455271D01*
X21605806Y11664557D01*
X21650000Y11886735D01*
X21650000Y12113265D01*
X21605806Y12335443D01*
X21519116Y12544729D01*
X21393263Y12733082D01*
X21233082Y12893263D01*
X21044729Y13019116D01*
X20835443Y13105806D01*
X20625158Y13147634D01*
X20200000Y13572792D01*
X20200000Y18777001D01*
X20319116Y18955271D01*
X20405806Y19164557D01*
X20450000Y19386735D01*
X20450000Y19613265D01*
X20405806Y19835443D01*
X20319116Y20044729D01*
X20193263Y20233082D01*
X20033082Y20393263D01*
X19844729Y20519116D01*
X19635443Y20605806D01*
X19413265Y20650000D01*
X19186735Y20650000D01*
X18964557Y20605806D01*
X18755271Y20519116D01*
X18566918Y20393263D01*
X18406737Y20233082D01*
X18321231Y20105114D01*
X18233082Y20193263D01*
X18044729Y20319116D01*
X17835443Y20405806D01*
X17613265Y20450000D01*
X17481369Y20450000D01*
X16449998Y21481370D01*
X16449998Y21613265D01*
X16405804Y21835443D01*
X16319114Y22044729D01*
X16193261Y22233082D01*
X16033080Y22393263D01*
X15844727Y22519116D01*
X15635441Y22605806D01*
X15413263Y22650000D01*
X15186733Y22650000D01*
X14964555Y22605806D01*
X14755269Y22519116D01*
X14566916Y22393263D01*
X14406735Y22233082D01*
X14280882Y22044729D01*
X14194192Y21835443D01*
X14149998Y21613265D01*
X12650000Y21613265D01*
X12650000Y21852001D01*
X12769116Y22030271D01*
X12855806Y22239557D01*
X12900000Y22461735D01*
X12900000Y22688265D01*
X12855806Y22910443D01*
X12769116Y23119729D01*
X12643263Y23308082D01*
X12483082Y23468263D01*
X12294729Y23594116D01*
X12085443Y23680806D01*
X11863265Y23725000D01*
X11636735Y23725000D01*
X11414557Y23680806D01*
X11205271Y23594116D01*
X11016918Y23468263D01*
X10856737Y23308082D01*
X10730884Y23119729D01*
X10644194Y22910443D01*
X10600000Y22688265D01*
X7020733Y22688265D01*
X7145013Y22839700D01*
X7288941Y23108971D01*
X7377572Y23401147D01*
X7407499Y23705000D01*
X7377572Y24008853D01*
X7288941Y24301029D01*
X7145013Y24570300D01*
X6951318Y24806318D01*
X6745778Y24975000D01*
X6951318Y25143682D01*
X7145013Y25379700D01*
X7288941Y25648971D01*
X7377572Y25941147D01*
X7407499Y26245000D01*
X7377572Y26548853D01*
X7288941Y26841029D01*
X7145013Y27110300D01*
X6951318Y27346318D01*
X6745778Y27515000D01*
X6951318Y27683682D01*
X7145013Y27919700D01*
X7288941Y28188971D01*
X7377572Y28481147D01*
X7407499Y28785000D01*
X7377572Y29088853D01*
X7288941Y29381029D01*
X7145013Y29650300D01*
X6951318Y29886318D01*
X6745778Y30055000D01*
X6951318Y30223682D01*
X7145013Y30459700D01*
X7288941Y30728971D01*
X7377572Y31021147D01*
X7407499Y31325000D01*
X7377572Y31628853D01*
X7288941Y31921029D01*
X7145013Y32190300D01*
X6951318Y32426318D01*
X6745778Y32595000D01*
X6951318Y32763682D01*
X7145013Y32999700D01*
X7288941Y33268971D01*
X7377572Y33561147D01*
X7407499Y33865000D01*
X7377572Y34168853D01*
X7288941Y34461029D01*
X7145013Y34730300D01*
X6951318Y34966318D01*
X6745778Y35135000D01*
X6951318Y35303682D01*
X7145013Y35539700D01*
X7288941Y35808971D01*
X7377572Y36101147D01*
X7407499Y36405000D01*
X7377572Y36708853D01*
X7288941Y37001029D01*
X7145013Y37270300D01*
X6951318Y37506318D01*
X6715300Y37700013D01*
X6446029Y37843941D01*
X6153853Y37932572D01*
X5926138Y37955000D01*
X5073862Y37955000D01*
X4846147Y37932572D01*
X4553971Y37843941D01*
X4284700Y37700013D01*
X4048682Y37506318D01*
X3854987Y37270300D01*
X3711059Y37001029D01*
X3622428Y36708853D01*
X3592501Y36405000D01*
X3250000Y36405000D01*
X3250000Y42350000D01*
X10000000Y42350000D01*
X10029264Y42352882D01*
X10057403Y42361418D01*
X10083336Y42375280D01*
X10106066Y42393934D01*
X12606066Y44893934D01*
X12624720Y44916664D01*
X12638582Y44942597D01*
X12647118Y44970736D01*
X12650000Y45000000D01*
X12650000Y51750000D01*
X19550000Y51750000D01*
X19550000Y21300000D01*
X19550000Y21300000D01*
G37*
X19550000Y21300000D02*
X19552882Y21270736D01*
X19561418Y21242597D01*
X19575280Y21216664D01*
X19593934Y21193934D01*
X22350000Y18437868D01*
X22350000Y3250000D01*
X12650000Y3250000D01*
X12650000Y10000000D01*
X12647118Y10029264D01*
X12638582Y10057403D01*
X12624720Y10083336D01*
X12606066Y10106066D01*
X10106066Y12606066D01*
X10083336Y12624720D01*
X10057403Y12638582D01*
X10029264Y12647118D01*
X10000000Y12650000D01*
X3250000Y12650000D01*
X3250000Y18362500D01*
X3600000Y18362500D01*
X3600000Y17660980D01*
X3624979Y17535402D01*
X3673978Y17417109D01*
X3745112Y17310649D01*
X3835649Y17220112D01*
X3942110Y17148977D01*
X4060402Y17099979D01*
X4185981Y17075000D01*
X5237500Y17075000D01*
X5400000Y17237500D01*
X5400000Y18525000D01*
X5600000Y18525000D01*
X5600000Y17237500D01*
X5762500Y17075000D01*
X6814019Y17075000D01*
X6939598Y17099979D01*
X7057890Y17148977D01*
X7164351Y17220112D01*
X7254888Y17310649D01*
X7326022Y17417109D01*
X7375021Y17535402D01*
X7400000Y17660980D01*
X7400000Y18362500D01*
X7237500Y18525000D01*
X5600000Y18525000D01*
X5400000Y18525000D01*
X3762500Y18525000D01*
X3600000Y18362500D01*
X3250000Y18362500D01*
X3250000Y36405000D01*
X3592501Y36405000D01*
X3622428Y36101147D01*
X3711059Y35808971D01*
X3854987Y35539700D01*
X4048682Y35303682D01*
X4254222Y35135000D01*
X4048682Y34966318D01*
X3854987Y34730300D01*
X3711059Y34461029D01*
X3622428Y34168853D01*
X3592501Y33865000D01*
X3622428Y33561147D01*
X3711059Y33268971D01*
X3854987Y32999700D01*
X4048682Y32763682D01*
X4254222Y32595000D01*
X4048682Y32426318D01*
X3854987Y32190300D01*
X3711059Y31921029D01*
X3622428Y31628853D01*
X3592501Y31325000D01*
X3622428Y31021147D01*
X3711059Y30728971D01*
X3854987Y30459700D01*
X4048682Y30223682D01*
X4254222Y30055000D01*
X4048682Y29886318D01*
X3854987Y29650300D01*
X3711059Y29381029D01*
X3622428Y29088853D01*
X3592501Y28785000D01*
X3622428Y28481147D01*
X3711059Y28188971D01*
X3854987Y27919700D01*
X4048682Y27683682D01*
X4254222Y27515000D01*
X4048682Y27346318D01*
X3854987Y27110300D01*
X3711059Y26841029D01*
X3622428Y26548853D01*
X3592501Y26245000D01*
X3622428Y25941147D01*
X3711059Y25648971D01*
X3854987Y25379700D01*
X4048682Y25143682D01*
X4254222Y24975000D01*
X4048682Y24806318D01*
X3854987Y24570300D01*
X3711059Y24301029D01*
X3622428Y24008853D01*
X3592501Y23705000D01*
X3622428Y23401147D01*
X3711059Y23108971D01*
X3854987Y22839700D01*
X4048682Y22603682D01*
X4254222Y22435000D01*
X4048682Y22266318D01*
X3854987Y22030300D01*
X3711059Y21761029D01*
X3622428Y21468853D01*
X3592501Y21165000D01*
X3622428Y20861147D01*
X3711059Y20568971D01*
X3854987Y20299700D01*
X3998775Y20124494D01*
X3942110Y20101023D01*
X3835649Y20029888D01*
X3745112Y19939351D01*
X3673978Y19832891D01*
X3624979Y19714598D01*
X3600000Y19589020D01*
X3600000Y18887500D01*
X3762500Y18725000D01*
X5400000Y18725000D01*
X5400000Y18745000D01*
X5600000Y18745000D01*
X5600000Y18725000D01*
X7237500Y18725000D01*
X7400000Y18887500D01*
X7400000Y19589020D01*
X7375021Y19714598D01*
X7326022Y19832891D01*
X7254888Y19939351D01*
X7164351Y20029888D01*
X7057890Y20101023D01*
X7001225Y20124494D01*
X7145013Y20299700D01*
X7288941Y20568971D01*
X7377572Y20861147D01*
X7407499Y21165000D01*
X7377572Y21468853D01*
X7288941Y21761029D01*
X7145013Y22030300D01*
X6951318Y22266318D01*
X6745778Y22435000D01*
X6951318Y22603682D01*
X7020733Y22688265D01*
X10600000Y22688265D01*
X10600000Y22461735D01*
X10644194Y22239557D01*
X10730884Y22030271D01*
X10850000Y21852000D01*
X10850001Y19044216D01*
X10845646Y19000000D01*
X10863023Y18823570D01*
X10914487Y18653919D01*
X10998057Y18497569D01*
X11082345Y18394863D01*
X11082348Y18394860D01*
X11110526Y18360525D01*
X11144861Y18332347D01*
X14600000Y14877208D01*
X14600001Y13973000D01*
X14480884Y13794729D01*
X14394194Y13585443D01*
X14350000Y13363265D01*
X14350000Y13136735D01*
X14394194Y12914557D01*
X14480884Y12705271D01*
X14606737Y12516918D01*
X14766918Y12356737D01*
X14955271Y12230884D01*
X15164557Y12144194D01*
X15386735Y12100000D01*
X15613265Y12100000D01*
X15835443Y12144194D01*
X16044729Y12230884D01*
X16233082Y12356737D01*
X16393263Y12516918D01*
X16519116Y12705271D01*
X16605806Y12914557D01*
X16650000Y13136735D01*
X16650000Y13363265D01*
X16605806Y13585443D01*
X16519116Y13794729D01*
X16400000Y13972999D01*
X16400000Y15205793D01*
X16404354Y15250000D01*
X16386977Y15426431D01*
X16335514Y15596080D01*
X16335514Y15596081D01*
X16251943Y15752432D01*
X16139475Y15889475D01*
X16105136Y15917656D01*
X12650000Y19372792D01*
X12650000Y21613265D01*
X14149998Y21613265D01*
X14149998Y21386735D01*
X14194192Y21164557D01*
X14280882Y20955271D01*
X14406735Y20766918D01*
X14566916Y20606737D01*
X14755269Y20480884D01*
X14964555Y20394194D01*
X15186733Y20350000D01*
X15318628Y20350000D01*
X16350000Y19318627D01*
X16350000Y19186735D01*
X16394194Y18964557D01*
X16480884Y18755271D01*
X16606737Y18566918D01*
X16766918Y18406737D01*
X16955271Y18280884D01*
X17164557Y18194194D01*
X17386735Y18150000D01*
X17613265Y18150000D01*
X17835443Y18194194D01*
X18044729Y18280884D01*
X18233082Y18406737D01*
X18393263Y18566918D01*
X18400001Y18577002D01*
X18400000Y13244207D01*
X18395646Y13200000D01*
X18413023Y13023570D01*
X18464486Y12853920D01*
X18548057Y12697569D01*
X18660525Y12560525D01*
X18694865Y12532343D01*
X19352366Y11874842D01*
X19394194Y11664557D01*
X19480884Y11455271D01*
X19606737Y11266918D01*
X19766918Y11106737D01*
X19955271Y10980884D01*
X20164557Y10894194D01*
X20386735Y10850000D01*
X20613265Y10850000D01*
X20835443Y10894194D01*
X21044729Y10980884D01*
X21233082Y11106737D01*
X21393263Y11266918D01*
X21519116Y11455271D01*
X21605806Y11664557D01*
X21650000Y11886735D01*
X21650000Y12113265D01*
X21605806Y12335443D01*
X21519116Y12544729D01*
X21393263Y12733082D01*
X21233082Y12893263D01*
X21044729Y13019116D01*
X20835443Y13105806D01*
X20625158Y13147634D01*
X20200000Y13572792D01*
X20200000Y18777001D01*
X20319116Y18955271D01*
X20405806Y19164557D01*
X20450000Y19386735D01*
X20450000Y19613265D01*
X20405806Y19835443D01*
X20319116Y20044729D01*
X20193263Y20233082D01*
X20033082Y20393263D01*
X19844729Y20519116D01*
X19635443Y20605806D01*
X19413265Y20650000D01*
X19186735Y20650000D01*
X18964557Y20605806D01*
X18755271Y20519116D01*
X18566918Y20393263D01*
X18406737Y20233082D01*
X18321231Y20105114D01*
X18233082Y20193263D01*
X18044729Y20319116D01*
X17835443Y20405806D01*
X17613265Y20450000D01*
X17481369Y20450000D01*
X16449998Y21481370D01*
X16449998Y21613265D01*
X16405804Y21835443D01*
X16319114Y22044729D01*
X16193261Y22233082D01*
X16033080Y22393263D01*
X15844727Y22519116D01*
X15635441Y22605806D01*
X15413263Y22650000D01*
X15186733Y22650000D01*
X14964555Y22605806D01*
X14755269Y22519116D01*
X14566916Y22393263D01*
X14406735Y22233082D01*
X14280882Y22044729D01*
X14194192Y21835443D01*
X14149998Y21613265D01*
X12650000Y21613265D01*
X12650000Y21852001D01*
X12769116Y22030271D01*
X12855806Y22239557D01*
X12900000Y22461735D01*
X12900000Y22688265D01*
X12855806Y22910443D01*
X12769116Y23119729D01*
X12643263Y23308082D01*
X12483082Y23468263D01*
X12294729Y23594116D01*
X12085443Y23680806D01*
X11863265Y23725000D01*
X11636735Y23725000D01*
X11414557Y23680806D01*
X11205271Y23594116D01*
X11016918Y23468263D01*
X10856737Y23308082D01*
X10730884Y23119729D01*
X10644194Y22910443D01*
X10600000Y22688265D01*
X7020733Y22688265D01*
X7145013Y22839700D01*
X7288941Y23108971D01*
X7377572Y23401147D01*
X7407499Y23705000D01*
X7377572Y24008853D01*
X7288941Y24301029D01*
X7145013Y24570300D01*
X6951318Y24806318D01*
X6745778Y24975000D01*
X6951318Y25143682D01*
X7145013Y25379700D01*
X7288941Y25648971D01*
X7377572Y25941147D01*
X7407499Y26245000D01*
X7377572Y26548853D01*
X7288941Y26841029D01*
X7145013Y27110300D01*
X6951318Y27346318D01*
X6745778Y27515000D01*
X6951318Y27683682D01*
X7145013Y27919700D01*
X7288941Y28188971D01*
X7377572Y28481147D01*
X7407499Y28785000D01*
X7377572Y29088853D01*
X7288941Y29381029D01*
X7145013Y29650300D01*
X6951318Y29886318D01*
X6745778Y30055000D01*
X6951318Y30223682D01*
X7145013Y30459700D01*
X7288941Y30728971D01*
X7377572Y31021147D01*
X7407499Y31325000D01*
X7377572Y31628853D01*
X7288941Y31921029D01*
X7145013Y32190300D01*
X6951318Y32426318D01*
X6745778Y32595000D01*
X6951318Y32763682D01*
X7145013Y32999700D01*
X7288941Y33268971D01*
X7377572Y33561147D01*
X7407499Y33865000D01*
X7377572Y34168853D01*
X7288941Y34461029D01*
X7145013Y34730300D01*
X6951318Y34966318D01*
X6745778Y35135000D01*
X6951318Y35303682D01*
X7145013Y35539700D01*
X7288941Y35808971D01*
X7377572Y36101147D01*
X7407499Y36405000D01*
X7377572Y36708853D01*
X7288941Y37001029D01*
X7145013Y37270300D01*
X6951318Y37506318D01*
X6715300Y37700013D01*
X6446029Y37843941D01*
X6153853Y37932572D01*
X5926138Y37955000D01*
X5073862Y37955000D01*
X4846147Y37932572D01*
X4553971Y37843941D01*
X4284700Y37700013D01*
X4048682Y37506318D01*
X3854987Y37270300D01*
X3711059Y37001029D01*
X3622428Y36708853D01*
X3592501Y36405000D01*
X3250000Y36405000D01*
X3250000Y42350000D01*
X10000000Y42350000D01*
X10029264Y42352882D01*
X10057403Y42361418D01*
X10083336Y42375280D01*
X10106066Y42393934D01*
X12606066Y44893934D01*
X12624720Y44916664D01*
X12638582Y44942597D01*
X12647118Y44970736D01*
X12650000Y45000000D01*
X12650000Y51750000D01*
X19550000Y51750000D01*
X19550000Y21300000D01*
G04 #@! TO.N,GNDA*
G36*
X42350000Y45000000D02*
X42352882Y44970736D01*
X42361418Y44942597D01*
X42375280Y44916664D01*
X42393934Y44893934D01*
X44893934Y42393934D01*
X44916664Y42375280D01*
X44942597Y42361418D01*
X44970736Y42352882D01*
X45000000Y42350000D01*
X51750001Y42350000D01*
X51750000Y12650000D01*
X45000000Y12650000D01*
X44970736Y12647118D01*
X44942597Y12638582D01*
X44916664Y12624720D01*
X44893934Y12606066D01*
X42393934Y10106066D01*
X42375280Y10083336D01*
X42361418Y10057403D01*
X42352882Y10029264D01*
X42350000Y10000000D01*
X42350000Y3250000D01*
X23250000Y3250000D01*
X23250000Y5926138D01*
X24685000Y5926138D01*
X24685000Y5073863D01*
X24707428Y4846148D01*
X24796059Y4553972D01*
X24939987Y4284701D01*
X25133682Y4048682D01*
X25369700Y3854987D01*
X25638971Y3711059D01*
X25931147Y3622428D01*
X26235000Y3592501D01*
X26538852Y3622428D01*
X26831028Y3711059D01*
X27100299Y3854987D01*
X27275506Y3998775D01*
X27298977Y3942110D01*
X27370112Y3835649D01*
X27460649Y3745112D01*
X27567109Y3673978D01*
X27685402Y3624979D01*
X27810980Y3600000D01*
X28512500Y3600000D01*
X28675000Y3762500D01*
X28675000Y5400000D01*
X28875000Y5400000D01*
X28875000Y3762500D01*
X29037500Y3600000D01*
X29739020Y3600000D01*
X29864598Y3624979D01*
X29982891Y3673978D01*
X30089351Y3745112D01*
X30179888Y3835649D01*
X30251023Y3942110D01*
X30300021Y4060402D01*
X30325000Y4185981D01*
X30325000Y5237500D01*
X30162500Y5400000D01*
X28875000Y5400000D01*
X28675000Y5400000D01*
X28655000Y5400000D01*
X28655000Y5600000D01*
X28675000Y5600000D01*
X28675000Y7237500D01*
X28875000Y7237500D01*
X28875000Y5600000D01*
X30162500Y5600000D01*
X30325000Y5762500D01*
X30325000Y6814019D01*
X30300021Y6939598D01*
X30251023Y7057890D01*
X30179888Y7164351D01*
X30089351Y7254888D01*
X29982891Y7326022D01*
X29864598Y7375021D01*
X29739020Y7400000D01*
X29037500Y7400000D01*
X28875000Y7237500D01*
X28675000Y7237500D01*
X28512500Y7400000D01*
X27810980Y7400000D01*
X27685402Y7375021D01*
X27567109Y7326022D01*
X27460649Y7254888D01*
X27370112Y7164351D01*
X27298977Y7057890D01*
X27275506Y7001225D01*
X27100300Y7145013D01*
X26831029Y7288941D01*
X26538853Y7377572D01*
X26235000Y7407499D01*
X25931148Y7377572D01*
X25638972Y7288941D01*
X25369701Y7145013D01*
X25133682Y6951318D01*
X24939987Y6715300D01*
X24796059Y6446029D01*
X24707428Y6153853D01*
X24685000Y5926138D01*
X23250000Y5926138D01*
X23250000Y12613265D01*
X33350000Y12613265D01*
X33350000Y12386735D01*
X33394194Y12164557D01*
X33480884Y11955271D01*
X33606737Y11766918D01*
X33766918Y11606737D01*
X33955271Y11480884D01*
X34164557Y11394194D01*
X34386735Y11350000D01*
X34613265Y11350000D01*
X34835443Y11394194D01*
X35044729Y11480884D01*
X35222999Y11600000D01*
X36611796Y11600000D01*
X36656002Y11595646D01*
X36700208Y11600000D01*
X36700209Y11600000D01*
X36832433Y11613023D01*
X37002083Y11664486D01*
X37158434Y11748057D01*
X37295477Y11860525D01*
X37323659Y11894865D01*
X38605140Y13176345D01*
X38639475Y13204523D01*
X38678392Y13251943D01*
X38751942Y13341565D01*
X38770578Y13376430D01*
X38835514Y13497917D01*
X38886977Y13667567D01*
X38900000Y13799791D01*
X38900000Y13799793D01*
X38904354Y13843997D01*
X38900000Y13888201D01*
X38900000Y13977500D01*
X47600000Y13977500D01*
X47600000Y13275980D01*
X47624979Y13150402D01*
X47673978Y13032109D01*
X47745112Y12925649D01*
X47835649Y12835112D01*
X47942110Y12763977D01*
X48060402Y12714979D01*
X48185981Y12690000D01*
X49237500Y12690000D01*
X49400000Y12852500D01*
X49400000Y14140000D01*
X49600000Y14140000D01*
X49600000Y12852500D01*
X49762500Y12690000D01*
X50814019Y12690000D01*
X50939598Y12714979D01*
X51057890Y12763977D01*
X51164351Y12835112D01*
X51254888Y12925649D01*
X51326022Y13032109D01*
X51375021Y13150402D01*
X51400000Y13275980D01*
X51400000Y13977500D01*
X51237500Y14140000D01*
X49600000Y14140000D01*
X49400000Y14140000D01*
X47762500Y14140000D01*
X47600000Y13977500D01*
X38900000Y13977500D01*
X38900000Y16780000D01*
X47592501Y16780000D01*
X47622428Y16476147D01*
X47711059Y16183971D01*
X47854987Y15914700D01*
X47998775Y15739494D01*
X47942110Y15716023D01*
X47835649Y15644888D01*
X47745112Y15554351D01*
X47673978Y15447891D01*
X47624979Y15329598D01*
X47600000Y15204020D01*
X47600000Y14502500D01*
X47762500Y14340000D01*
X49400000Y14340000D01*
X49400000Y14360000D01*
X49600000Y14360000D01*
X49600000Y14340000D01*
X51237500Y14340000D01*
X51400000Y14502500D01*
X51400000Y15204020D01*
X51375021Y15329598D01*
X51326022Y15447891D01*
X51254888Y15554351D01*
X51164351Y15644888D01*
X51057890Y15716023D01*
X51001225Y15739494D01*
X51145013Y15914700D01*
X51288941Y16183971D01*
X51377572Y16476147D01*
X51407499Y16780000D01*
X51377572Y17083853D01*
X51288941Y17376029D01*
X51145013Y17645300D01*
X50951318Y17881318D01*
X50715300Y18075013D01*
X50446029Y18218941D01*
X50153853Y18307572D01*
X49926138Y18330000D01*
X49073862Y18330000D01*
X48846147Y18307572D01*
X48553971Y18218941D01*
X48284700Y18075013D01*
X48048682Y17881318D01*
X47854987Y17645300D01*
X47711059Y17376029D01*
X47622428Y17083853D01*
X47592501Y16780000D01*
X38900000Y16780000D01*
X38900000Y18127226D01*
X39125158Y18352384D01*
X39335443Y18394212D01*
X39544729Y18480902D01*
X39733082Y18606755D01*
X39893263Y18766936D01*
X40019116Y18955289D01*
X40105806Y19164575D01*
X40150000Y19386753D01*
X40150000Y19613283D01*
X40105806Y19835461D01*
X40019116Y20044747D01*
X39893263Y20233100D01*
X39733082Y20393281D01*
X39544729Y20519134D01*
X39335443Y20605824D01*
X39125136Y20647657D01*
X38900000Y20872792D01*
X38900000Y21967500D01*
X47600000Y21967500D01*
X47600000Y21265980D01*
X47624979Y21140402D01*
X47673978Y21022109D01*
X47745112Y20915649D01*
X47835649Y20825112D01*
X47942110Y20753977D01*
X48060402Y20704979D01*
X48185981Y20680000D01*
X49237500Y20680000D01*
X49400000Y20842500D01*
X49400000Y22130000D01*
X49600000Y22130000D01*
X49600000Y20842500D01*
X49762500Y20680000D01*
X50814019Y20680000D01*
X50939598Y20704979D01*
X51057890Y20753977D01*
X51164351Y20825112D01*
X51254888Y20915649D01*
X51326022Y21022109D01*
X51375021Y21140402D01*
X51400000Y21265980D01*
X51400000Y21967500D01*
X51237500Y22130000D01*
X49600000Y22130000D01*
X49400000Y22130000D01*
X47762500Y22130000D01*
X47600000Y21967500D01*
X38900000Y21967500D01*
X38900000Y24770000D01*
X47592501Y24770000D01*
X47622428Y24466147D01*
X47711059Y24173971D01*
X47854987Y23904700D01*
X47998775Y23729494D01*
X47942110Y23706023D01*
X47835649Y23634888D01*
X47745112Y23544351D01*
X47673978Y23437891D01*
X47624979Y23319598D01*
X47600000Y23194020D01*
X47600000Y22492500D01*
X47762500Y22330000D01*
X49400000Y22330000D01*
X49400000Y22350000D01*
X49600000Y22350000D01*
X49600000Y22330000D01*
X51237500Y22330000D01*
X51400000Y22492500D01*
X51400000Y23194020D01*
X51375021Y23319598D01*
X51326022Y23437891D01*
X51254888Y23544351D01*
X51164351Y23634888D01*
X51057890Y23706023D01*
X51001225Y23729494D01*
X51145013Y23904700D01*
X51288941Y24173971D01*
X51377572Y24466147D01*
X51407499Y24770000D01*
X51377572Y25073853D01*
X51288941Y25366029D01*
X51145013Y25635300D01*
X50951318Y25871318D01*
X50715300Y26065013D01*
X50446029Y26208941D01*
X50153853Y26297572D01*
X49926138Y26320000D01*
X49073862Y26320000D01*
X48846147Y26297572D01*
X48553971Y26208941D01*
X48284700Y26065013D01*
X48048682Y25871318D01*
X47854987Y25635300D01*
X47711059Y25366029D01*
X47622428Y25073853D01*
X47592501Y24770000D01*
X38900000Y24770000D01*
X38900000Y27705793D01*
X38904354Y27750000D01*
X38886977Y27926431D01*
X38835514Y28096081D01*
X38751943Y28252432D01*
X38646486Y28380932D01*
X38605806Y28585443D01*
X38519116Y28794729D01*
X38400000Y28972999D01*
X38400000Y29957500D01*
X47600000Y29957500D01*
X47600000Y29255980D01*
X47624979Y29130402D01*
X47673978Y29012109D01*
X47745112Y28905649D01*
X47835649Y28815112D01*
X47942110Y28743977D01*
X48060402Y28694979D01*
X48185981Y28670000D01*
X49237500Y28670000D01*
X49400000Y28832500D01*
X49400000Y30120000D01*
X49600000Y30120000D01*
X49600000Y28832500D01*
X49762500Y28670000D01*
X50814019Y28670000D01*
X50939598Y28694979D01*
X51057890Y28743977D01*
X51164351Y28815112D01*
X51254888Y28905649D01*
X51326022Y29012109D01*
X51375021Y29130402D01*
X51400000Y29255980D01*
X51400000Y29957500D01*
X51237500Y30120000D01*
X49600000Y30120000D01*
X49400000Y30120000D01*
X47762500Y30120000D01*
X47600000Y29957500D01*
X38400000Y29957500D01*
X38400000Y32760000D01*
X47592501Y32760000D01*
X47622428Y32456147D01*
X47711059Y32163971D01*
X47854987Y31894700D01*
X47998775Y31719494D01*
X47942110Y31696023D01*
X47835649Y31624888D01*
X47745112Y31534351D01*
X47673978Y31427891D01*
X47624979Y31309598D01*
X47600000Y31184020D01*
X47600000Y30482500D01*
X47762500Y30320000D01*
X49400000Y30320000D01*
X49400000Y30340000D01*
X49600000Y30340000D01*
X49600000Y30320000D01*
X51237500Y30320000D01*
X51400000Y30482500D01*
X51400000Y31184020D01*
X51375021Y31309598D01*
X51326022Y31427891D01*
X51254888Y31534351D01*
X51164351Y31624888D01*
X51057890Y31696023D01*
X51001225Y31719494D01*
X51145013Y31894700D01*
X51288941Y32163971D01*
X51377572Y32456147D01*
X51407499Y32760000D01*
X51377572Y33063853D01*
X51288941Y33356029D01*
X51145013Y33625300D01*
X50951318Y33861318D01*
X50715300Y34055013D01*
X50446029Y34198941D01*
X50153853Y34287572D01*
X49926138Y34310000D01*
X49073862Y34310000D01*
X48846147Y34287572D01*
X48553971Y34198941D01*
X48284700Y34055013D01*
X48048682Y33861318D01*
X47854987Y33625300D01*
X47711059Y33356029D01*
X47622428Y33063853D01*
X47592501Y32760000D01*
X38400000Y32760000D01*
X38400000Y37947500D01*
X47600000Y37947500D01*
X47600000Y37245980D01*
X47624979Y37120402D01*
X47673978Y37002109D01*
X47745112Y36895649D01*
X47835649Y36805112D01*
X47942110Y36733977D01*
X48060402Y36684979D01*
X48185981Y36660000D01*
X49237500Y36660000D01*
X49400000Y36822500D01*
X49400000Y38110000D01*
X49600000Y38110000D01*
X49600000Y36822500D01*
X49762500Y36660000D01*
X50814019Y36660000D01*
X50939598Y36684979D01*
X51057890Y36733977D01*
X51164351Y36805112D01*
X51254888Y36895649D01*
X51326022Y37002109D01*
X51375021Y37120402D01*
X51400000Y37245980D01*
X51400000Y37947500D01*
X51237500Y38110000D01*
X49600000Y38110000D01*
X49400000Y38110000D01*
X47762500Y38110000D01*
X47600000Y37947500D01*
X38400000Y37947500D01*
X38400000Y40750000D01*
X47592501Y40750000D01*
X47622428Y40446147D01*
X47711059Y40153971D01*
X47854987Y39884700D01*
X47998775Y39709494D01*
X47942110Y39686023D01*
X47835649Y39614888D01*
X47745112Y39524351D01*
X47673978Y39417891D01*
X47624979Y39299598D01*
X47600000Y39174020D01*
X47600000Y38472500D01*
X47762500Y38310000D01*
X49400000Y38310000D01*
X49400000Y38330000D01*
X49600000Y38330000D01*
X49600000Y38310000D01*
X51237500Y38310000D01*
X51400000Y38472500D01*
X51400000Y39174020D01*
X51375021Y39299598D01*
X51326022Y39417891D01*
X51254888Y39524351D01*
X51164351Y39614888D01*
X51057890Y39686023D01*
X51001225Y39709494D01*
X51145013Y39884700D01*
X51288941Y40153971D01*
X51377572Y40446147D01*
X51407499Y40750000D01*
X51377572Y41053853D01*
X51288941Y41346029D01*
X51145013Y41615300D01*
X50951318Y41851318D01*
X50715300Y42045013D01*
X50446029Y42188941D01*
X50153853Y42277572D01*
X49926138Y42300000D01*
X49073862Y42300000D01*
X48846147Y42277572D01*
X48553971Y42188941D01*
X48284700Y42045013D01*
X48048682Y41851318D01*
X47854987Y41615300D01*
X47711059Y41346029D01*
X47622428Y41053853D01*
X47592501Y40750000D01*
X38400000Y40750000D01*
X38400000Y42526903D01*
X38519116Y42705173D01*
X38605806Y42914459D01*
X38650000Y43136637D01*
X38650000Y43363167D01*
X38605806Y43585345D01*
X38519116Y43794631D01*
X38393263Y43982984D01*
X38233082Y44143165D01*
X38044729Y44269018D01*
X37835443Y44355708D01*
X37613265Y44399902D01*
X37386735Y44399902D01*
X37164557Y44355708D01*
X36955271Y44269018D01*
X36766918Y44143165D01*
X36606737Y43982984D01*
X36480884Y43794631D01*
X36394194Y43585345D01*
X36350000Y43363167D01*
X36350000Y43136637D01*
X36394194Y42914459D01*
X36480884Y42705173D01*
X36600001Y42526901D01*
X36600000Y28972999D01*
X36480884Y28794729D01*
X36394194Y28585443D01*
X36350000Y28363265D01*
X36350000Y28136735D01*
X36394194Y27914557D01*
X36454619Y27768680D01*
X36266918Y27643263D01*
X36106737Y27483082D01*
X35980884Y27294729D01*
X35894194Y27085443D01*
X35850000Y26863265D01*
X35850000Y26636735D01*
X35894194Y26414557D01*
X35980884Y26205271D01*
X36106737Y26016918D01*
X36200001Y25923654D01*
X36200000Y17576345D01*
X36106737Y17483082D01*
X35980884Y17294729D01*
X35894194Y17085443D01*
X35850000Y16863265D01*
X35850000Y16636735D01*
X35894194Y16414557D01*
X35980884Y16205271D01*
X36106737Y16016918D01*
X36200000Y15923655D01*
X36200001Y15076346D01*
X36106737Y14983082D01*
X35980884Y14794729D01*
X35894194Y14585443D01*
X35850000Y14363265D01*
X35850000Y14136735D01*
X35894194Y13914557D01*
X35980884Y13705271D01*
X36106737Y13516918D01*
X36223655Y13400000D01*
X35222999Y13400000D01*
X35044729Y13519116D01*
X34835443Y13605806D01*
X34613265Y13650000D01*
X34386735Y13650000D01*
X34164557Y13605806D01*
X33955271Y13519116D01*
X33766918Y13393263D01*
X33606737Y13233082D01*
X33480884Y13044729D01*
X33394194Y12835443D01*
X33350000Y12613265D01*
X23250000Y12613265D01*
X23250000Y17927204D01*
X23386735Y17900006D01*
X23613265Y17900006D01*
X23835443Y17944200D01*
X24044729Y18030890D01*
X24233082Y18156743D01*
X24393263Y18316924D01*
X24519116Y18505277D01*
X24605806Y18714563D01*
X24650000Y18936741D01*
X24650000Y19068630D01*
X25937902Y20356531D01*
X25968422Y20381578D01*
X25993469Y20412098D01*
X26068393Y20503393D01*
X26142679Y20642372D01*
X26154093Y20680000D01*
X26188424Y20793173D01*
X26200000Y20910707D01*
X26200000Y20910716D01*
X26203869Y20949999D01*
X26200000Y20989282D01*
X26200000Y21618630D01*
X26831371Y22250000D01*
X26963265Y22250000D01*
X27185443Y22294194D01*
X27394729Y22380884D01*
X27583082Y22506737D01*
X27743263Y22666918D01*
X27869116Y22855271D01*
X27955806Y23064557D01*
X28000000Y23286735D01*
X28000000Y23513265D01*
X27955806Y23735443D01*
X27869116Y23944729D01*
X27743263Y24133082D01*
X27583082Y24293263D01*
X27394729Y24419116D01*
X27185443Y24505806D01*
X26963265Y24550000D01*
X26736735Y24550000D01*
X26514557Y24505806D01*
X26305271Y24419116D01*
X26116918Y24293263D01*
X25956737Y24133082D01*
X25830884Y23944729D01*
X25744194Y23735443D01*
X25700000Y23513265D01*
X25700000Y23381371D01*
X24862103Y22543473D01*
X24831578Y22518422D01*
X24777151Y22452101D01*
X24731607Y22396606D01*
X24676867Y22294194D01*
X24657321Y22257627D01*
X24611576Y22106826D01*
X24600000Y21989293D01*
X24596130Y21950000D01*
X24600000Y21910709D01*
X24600001Y21281372D01*
X23518636Y20200006D01*
X23386735Y20200006D01*
X23164557Y20155812D01*
X22955271Y20069122D01*
X22766918Y19943269D01*
X22606737Y19783088D01*
X22480884Y19594735D01*
X22462289Y19549843D01*
X20450000Y21562132D01*
X20450000Y50113265D01*
X21600000Y50113265D01*
X21600000Y49886735D01*
X21644194Y49664557D01*
X21730884Y49455271D01*
X21856737Y49266918D01*
X21950001Y49173654D01*
X21950000Y38312099D01*
X21946130Y38272808D01*
X21950000Y38233517D01*
X21950000Y38233516D01*
X21961576Y38115982D01*
X21980562Y38053394D01*
X22007321Y37965181D01*
X22081607Y37826202D01*
X22127151Y37770707D01*
X22181578Y37704386D01*
X22212103Y37679335D01*
X22861404Y37030033D01*
X22861404Y36898139D01*
X22905598Y36675961D01*
X22992288Y36466675D01*
X23118141Y36278322D01*
X23278322Y36118141D01*
X23466675Y35992288D01*
X23675961Y35905598D01*
X23898139Y35861404D01*
X24124669Y35861404D01*
X24200000Y35876388D01*
X24200001Y30326358D01*
X24106737Y30233094D01*
X23980884Y30044741D01*
X23894194Y29835455D01*
X23850000Y29613277D01*
X23850000Y29386747D01*
X23894194Y29164569D01*
X23980884Y28955283D01*
X24106737Y28766930D01*
X24266918Y28606749D01*
X24455271Y28480896D01*
X24664557Y28394206D01*
X24886735Y28350012D01*
X25113265Y28350012D01*
X25335443Y28394206D01*
X25544729Y28480896D01*
X25733082Y28606749D01*
X25893263Y28766930D01*
X26019116Y28955283D01*
X26105806Y29164569D01*
X26150000Y29386747D01*
X26150000Y29613277D01*
X26105806Y29835455D01*
X26019116Y30044741D01*
X25893263Y30233094D01*
X25800000Y30326357D01*
X25800000Y37460709D01*
X25803870Y37500000D01*
X25798341Y37556133D01*
X25788424Y37656827D01*
X25742679Y37807628D01*
X25668394Y37946605D01*
X25668393Y37946607D01*
X25593470Y38037901D01*
X25593469Y38037902D01*
X25568422Y38068422D01*
X25537903Y38093468D01*
X25150000Y38481371D01*
X25150000Y38613265D01*
X25105806Y38835443D01*
X25019116Y39044729D01*
X24893263Y39233082D01*
X24733082Y39393263D01*
X24544729Y39519116D01*
X24335443Y39605806D01*
X24113265Y39650000D01*
X23886735Y39650000D01*
X23664557Y39605806D01*
X23550000Y39558354D01*
X23550000Y49173655D01*
X23643263Y49266918D01*
X23769116Y49455271D01*
X23855806Y49664557D01*
X23900000Y49886735D01*
X23900000Y50113265D01*
X23855806Y50335443D01*
X23769116Y50544729D01*
X23643263Y50733082D01*
X23483082Y50893263D01*
X23294729Y51019116D01*
X23085443Y51105806D01*
X22863265Y51150000D01*
X22636735Y51150000D01*
X22414557Y51105806D01*
X22205271Y51019116D01*
X22016918Y50893263D01*
X21856737Y50733082D01*
X21730884Y50544729D01*
X21644194Y50335443D01*
X21600000Y50113265D01*
X20450000Y50113265D01*
X20450000Y51750000D01*
X42350000Y51750000D01*
X42350000Y45000000D01*
X42350000Y45000000D01*
G37*
X42350000Y45000000D02*
X42352882Y44970736D01*
X42361418Y44942597D01*
X42375280Y44916664D01*
X42393934Y44893934D01*
X44893934Y42393934D01*
X44916664Y42375280D01*
X44942597Y42361418D01*
X44970736Y42352882D01*
X45000000Y42350000D01*
X51750001Y42350000D01*
X51750000Y12650000D01*
X45000000Y12650000D01*
X44970736Y12647118D01*
X44942597Y12638582D01*
X44916664Y12624720D01*
X44893934Y12606066D01*
X42393934Y10106066D01*
X42375280Y10083336D01*
X42361418Y10057403D01*
X42352882Y10029264D01*
X42350000Y10000000D01*
X42350000Y3250000D01*
X23250000Y3250000D01*
X23250000Y5926138D01*
X24685000Y5926138D01*
X24685000Y5073863D01*
X24707428Y4846148D01*
X24796059Y4553972D01*
X24939987Y4284701D01*
X25133682Y4048682D01*
X25369700Y3854987D01*
X25638971Y3711059D01*
X25931147Y3622428D01*
X26235000Y3592501D01*
X26538852Y3622428D01*
X26831028Y3711059D01*
X27100299Y3854987D01*
X27275506Y3998775D01*
X27298977Y3942110D01*
X27370112Y3835649D01*
X27460649Y3745112D01*
X27567109Y3673978D01*
X27685402Y3624979D01*
X27810980Y3600000D01*
X28512500Y3600000D01*
X28675000Y3762500D01*
X28675000Y5400000D01*
X28875000Y5400000D01*
X28875000Y3762500D01*
X29037500Y3600000D01*
X29739020Y3600000D01*
X29864598Y3624979D01*
X29982891Y3673978D01*
X30089351Y3745112D01*
X30179888Y3835649D01*
X30251023Y3942110D01*
X30300021Y4060402D01*
X30325000Y4185981D01*
X30325000Y5237500D01*
X30162500Y5400000D01*
X28875000Y5400000D01*
X28675000Y5400000D01*
X28655000Y5400000D01*
X28655000Y5600000D01*
X28675000Y5600000D01*
X28675000Y7237500D01*
X28875000Y7237500D01*
X28875000Y5600000D01*
X30162500Y5600000D01*
X30325000Y5762500D01*
X30325000Y6814019D01*
X30300021Y6939598D01*
X30251023Y7057890D01*
X30179888Y7164351D01*
X30089351Y7254888D01*
X29982891Y7326022D01*
X29864598Y7375021D01*
X29739020Y7400000D01*
X29037500Y7400000D01*
X28875000Y7237500D01*
X28675000Y7237500D01*
X28512500Y7400000D01*
X27810980Y7400000D01*
X27685402Y7375021D01*
X27567109Y7326022D01*
X27460649Y7254888D01*
X27370112Y7164351D01*
X27298977Y7057890D01*
X27275506Y7001225D01*
X27100300Y7145013D01*
X26831029Y7288941D01*
X26538853Y7377572D01*
X26235000Y7407499D01*
X25931148Y7377572D01*
X25638972Y7288941D01*
X25369701Y7145013D01*
X25133682Y6951318D01*
X24939987Y6715300D01*
X24796059Y6446029D01*
X24707428Y6153853D01*
X24685000Y5926138D01*
X23250000Y5926138D01*
X23250000Y12613265D01*
X33350000Y12613265D01*
X33350000Y12386735D01*
X33394194Y12164557D01*
X33480884Y11955271D01*
X33606737Y11766918D01*
X33766918Y11606737D01*
X33955271Y11480884D01*
X34164557Y11394194D01*
X34386735Y11350000D01*
X34613265Y11350000D01*
X34835443Y11394194D01*
X35044729Y11480884D01*
X35222999Y11600000D01*
X36611796Y11600000D01*
X36656002Y11595646D01*
X36700208Y11600000D01*
X36700209Y11600000D01*
X36832433Y11613023D01*
X37002083Y11664486D01*
X37158434Y11748057D01*
X37295477Y11860525D01*
X37323659Y11894865D01*
X38605140Y13176345D01*
X38639475Y13204523D01*
X38678392Y13251943D01*
X38751942Y13341565D01*
X38770578Y13376430D01*
X38835514Y13497917D01*
X38886977Y13667567D01*
X38900000Y13799791D01*
X38900000Y13799793D01*
X38904354Y13843997D01*
X38900000Y13888201D01*
X38900000Y13977500D01*
X47600000Y13977500D01*
X47600000Y13275980D01*
X47624979Y13150402D01*
X47673978Y13032109D01*
X47745112Y12925649D01*
X47835649Y12835112D01*
X47942110Y12763977D01*
X48060402Y12714979D01*
X48185981Y12690000D01*
X49237500Y12690000D01*
X49400000Y12852500D01*
X49400000Y14140000D01*
X49600000Y14140000D01*
X49600000Y12852500D01*
X49762500Y12690000D01*
X50814019Y12690000D01*
X50939598Y12714979D01*
X51057890Y12763977D01*
X51164351Y12835112D01*
X51254888Y12925649D01*
X51326022Y13032109D01*
X51375021Y13150402D01*
X51400000Y13275980D01*
X51400000Y13977500D01*
X51237500Y14140000D01*
X49600000Y14140000D01*
X49400000Y14140000D01*
X47762500Y14140000D01*
X47600000Y13977500D01*
X38900000Y13977500D01*
X38900000Y16780000D01*
X47592501Y16780000D01*
X47622428Y16476147D01*
X47711059Y16183971D01*
X47854987Y15914700D01*
X47998775Y15739494D01*
X47942110Y15716023D01*
X47835649Y15644888D01*
X47745112Y15554351D01*
X47673978Y15447891D01*
X47624979Y15329598D01*
X47600000Y15204020D01*
X47600000Y14502500D01*
X47762500Y14340000D01*
X49400000Y14340000D01*
X49400000Y14360000D01*
X49600000Y14360000D01*
X49600000Y14340000D01*
X51237500Y14340000D01*
X51400000Y14502500D01*
X51400000Y15204020D01*
X51375021Y15329598D01*
X51326022Y15447891D01*
X51254888Y15554351D01*
X51164351Y15644888D01*
X51057890Y15716023D01*
X51001225Y15739494D01*
X51145013Y15914700D01*
X51288941Y16183971D01*
X51377572Y16476147D01*
X51407499Y16780000D01*
X51377572Y17083853D01*
X51288941Y17376029D01*
X51145013Y17645300D01*
X50951318Y17881318D01*
X50715300Y18075013D01*
X50446029Y18218941D01*
X50153853Y18307572D01*
X49926138Y18330000D01*
X49073862Y18330000D01*
X48846147Y18307572D01*
X48553971Y18218941D01*
X48284700Y18075013D01*
X48048682Y17881318D01*
X47854987Y17645300D01*
X47711059Y17376029D01*
X47622428Y17083853D01*
X47592501Y16780000D01*
X38900000Y16780000D01*
X38900000Y18127226D01*
X39125158Y18352384D01*
X39335443Y18394212D01*
X39544729Y18480902D01*
X39733082Y18606755D01*
X39893263Y18766936D01*
X40019116Y18955289D01*
X40105806Y19164575D01*
X40150000Y19386753D01*
X40150000Y19613283D01*
X40105806Y19835461D01*
X40019116Y20044747D01*
X39893263Y20233100D01*
X39733082Y20393281D01*
X39544729Y20519134D01*
X39335443Y20605824D01*
X39125136Y20647657D01*
X38900000Y20872792D01*
X38900000Y21967500D01*
X47600000Y21967500D01*
X47600000Y21265980D01*
X47624979Y21140402D01*
X47673978Y21022109D01*
X47745112Y20915649D01*
X47835649Y20825112D01*
X47942110Y20753977D01*
X48060402Y20704979D01*
X48185981Y20680000D01*
X49237500Y20680000D01*
X49400000Y20842500D01*
X49400000Y22130000D01*
X49600000Y22130000D01*
X49600000Y20842500D01*
X49762500Y20680000D01*
X50814019Y20680000D01*
X50939598Y20704979D01*
X51057890Y20753977D01*
X51164351Y20825112D01*
X51254888Y20915649D01*
X51326022Y21022109D01*
X51375021Y21140402D01*
X51400000Y21265980D01*
X51400000Y21967500D01*
X51237500Y22130000D01*
X49600000Y22130000D01*
X49400000Y22130000D01*
X47762500Y22130000D01*
X47600000Y21967500D01*
X38900000Y21967500D01*
X38900000Y24770000D01*
X47592501Y24770000D01*
X47622428Y24466147D01*
X47711059Y24173971D01*
X47854987Y23904700D01*
X47998775Y23729494D01*
X47942110Y23706023D01*
X47835649Y23634888D01*
X47745112Y23544351D01*
X47673978Y23437891D01*
X47624979Y23319598D01*
X47600000Y23194020D01*
X47600000Y22492500D01*
X47762500Y22330000D01*
X49400000Y22330000D01*
X49400000Y22350000D01*
X49600000Y22350000D01*
X49600000Y22330000D01*
X51237500Y22330000D01*
X51400000Y22492500D01*
X51400000Y23194020D01*
X51375021Y23319598D01*
X51326022Y23437891D01*
X51254888Y23544351D01*
X51164351Y23634888D01*
X51057890Y23706023D01*
X51001225Y23729494D01*
X51145013Y23904700D01*
X51288941Y24173971D01*
X51377572Y24466147D01*
X51407499Y24770000D01*
X51377572Y25073853D01*
X51288941Y25366029D01*
X51145013Y25635300D01*
X50951318Y25871318D01*
X50715300Y26065013D01*
X50446029Y26208941D01*
X50153853Y26297572D01*
X49926138Y26320000D01*
X49073862Y26320000D01*
X48846147Y26297572D01*
X48553971Y26208941D01*
X48284700Y26065013D01*
X48048682Y25871318D01*
X47854987Y25635300D01*
X47711059Y25366029D01*
X47622428Y25073853D01*
X47592501Y24770000D01*
X38900000Y24770000D01*
X38900000Y27705793D01*
X38904354Y27750000D01*
X38886977Y27926431D01*
X38835514Y28096081D01*
X38751943Y28252432D01*
X38646486Y28380932D01*
X38605806Y28585443D01*
X38519116Y28794729D01*
X38400000Y28972999D01*
X38400000Y29957500D01*
X47600000Y29957500D01*
X47600000Y29255980D01*
X47624979Y29130402D01*
X47673978Y29012109D01*
X47745112Y28905649D01*
X47835649Y28815112D01*
X47942110Y28743977D01*
X48060402Y28694979D01*
X48185981Y28670000D01*
X49237500Y28670000D01*
X49400000Y28832500D01*
X49400000Y30120000D01*
X49600000Y30120000D01*
X49600000Y28832500D01*
X49762500Y28670000D01*
X50814019Y28670000D01*
X50939598Y28694979D01*
X51057890Y28743977D01*
X51164351Y28815112D01*
X51254888Y28905649D01*
X51326022Y29012109D01*
X51375021Y29130402D01*
X51400000Y29255980D01*
X51400000Y29957500D01*
X51237500Y30120000D01*
X49600000Y30120000D01*
X49400000Y30120000D01*
X47762500Y30120000D01*
X47600000Y29957500D01*
X38400000Y29957500D01*
X38400000Y32760000D01*
X47592501Y32760000D01*
X47622428Y32456147D01*
X47711059Y32163971D01*
X47854987Y31894700D01*
X47998775Y31719494D01*
X47942110Y31696023D01*
X47835649Y31624888D01*
X47745112Y31534351D01*
X47673978Y31427891D01*
X47624979Y31309598D01*
X47600000Y31184020D01*
X47600000Y30482500D01*
X47762500Y30320000D01*
X49400000Y30320000D01*
X49400000Y30340000D01*
X49600000Y30340000D01*
X49600000Y30320000D01*
X51237500Y30320000D01*
X51400000Y30482500D01*
X51400000Y31184020D01*
X51375021Y31309598D01*
X51326022Y31427891D01*
X51254888Y31534351D01*
X51164351Y31624888D01*
X51057890Y31696023D01*
X51001225Y31719494D01*
X51145013Y31894700D01*
X51288941Y32163971D01*
X51377572Y32456147D01*
X51407499Y32760000D01*
X51377572Y33063853D01*
X51288941Y33356029D01*
X51145013Y33625300D01*
X50951318Y33861318D01*
X50715300Y34055013D01*
X50446029Y34198941D01*
X50153853Y34287572D01*
X49926138Y34310000D01*
X49073862Y34310000D01*
X48846147Y34287572D01*
X48553971Y34198941D01*
X48284700Y34055013D01*
X48048682Y33861318D01*
X47854987Y33625300D01*
X47711059Y33356029D01*
X47622428Y33063853D01*
X47592501Y32760000D01*
X38400000Y32760000D01*
X38400000Y37947500D01*
X47600000Y37947500D01*
X47600000Y37245980D01*
X47624979Y37120402D01*
X47673978Y37002109D01*
X47745112Y36895649D01*
X47835649Y36805112D01*
X47942110Y36733977D01*
X48060402Y36684979D01*
X48185981Y36660000D01*
X49237500Y36660000D01*
X49400000Y36822500D01*
X49400000Y38110000D01*
X49600000Y38110000D01*
X49600000Y36822500D01*
X49762500Y36660000D01*
X50814019Y36660000D01*
X50939598Y36684979D01*
X51057890Y36733977D01*
X51164351Y36805112D01*
X51254888Y36895649D01*
X51326022Y37002109D01*
X51375021Y37120402D01*
X51400000Y37245980D01*
X51400000Y37947500D01*
X51237500Y38110000D01*
X49600000Y38110000D01*
X49400000Y38110000D01*
X47762500Y38110000D01*
X47600000Y37947500D01*
X38400000Y37947500D01*
X38400000Y40750000D01*
X47592501Y40750000D01*
X47622428Y40446147D01*
X47711059Y40153971D01*
X47854987Y39884700D01*
X47998775Y39709494D01*
X47942110Y39686023D01*
X47835649Y39614888D01*
X47745112Y39524351D01*
X47673978Y39417891D01*
X47624979Y39299598D01*
X47600000Y39174020D01*
X47600000Y38472500D01*
X47762500Y38310000D01*
X49400000Y38310000D01*
X49400000Y38330000D01*
X49600000Y38330000D01*
X49600000Y38310000D01*
X51237500Y38310000D01*
X51400000Y38472500D01*
X51400000Y39174020D01*
X51375021Y39299598D01*
X51326022Y39417891D01*
X51254888Y39524351D01*
X51164351Y39614888D01*
X51057890Y39686023D01*
X51001225Y39709494D01*
X51145013Y39884700D01*
X51288941Y40153971D01*
X51377572Y40446147D01*
X51407499Y40750000D01*
X51377572Y41053853D01*
X51288941Y41346029D01*
X51145013Y41615300D01*
X50951318Y41851318D01*
X50715300Y42045013D01*
X50446029Y42188941D01*
X50153853Y42277572D01*
X49926138Y42300000D01*
X49073862Y42300000D01*
X48846147Y42277572D01*
X48553971Y42188941D01*
X48284700Y42045013D01*
X48048682Y41851318D01*
X47854987Y41615300D01*
X47711059Y41346029D01*
X47622428Y41053853D01*
X47592501Y40750000D01*
X38400000Y40750000D01*
X38400000Y42526903D01*
X38519116Y42705173D01*
X38605806Y42914459D01*
X38650000Y43136637D01*
X38650000Y43363167D01*
X38605806Y43585345D01*
X38519116Y43794631D01*
X38393263Y43982984D01*
X38233082Y44143165D01*
X38044729Y44269018D01*
X37835443Y44355708D01*
X37613265Y44399902D01*
X37386735Y44399902D01*
X37164557Y44355708D01*
X36955271Y44269018D01*
X36766918Y44143165D01*
X36606737Y43982984D01*
X36480884Y43794631D01*
X36394194Y43585345D01*
X36350000Y43363167D01*
X36350000Y43136637D01*
X36394194Y42914459D01*
X36480884Y42705173D01*
X36600001Y42526901D01*
X36600000Y28972999D01*
X36480884Y28794729D01*
X36394194Y28585443D01*
X36350000Y28363265D01*
X36350000Y28136735D01*
X36394194Y27914557D01*
X36454619Y27768680D01*
X36266918Y27643263D01*
X36106737Y27483082D01*
X35980884Y27294729D01*
X35894194Y27085443D01*
X35850000Y26863265D01*
X35850000Y26636735D01*
X35894194Y26414557D01*
X35980884Y26205271D01*
X36106737Y26016918D01*
X36200001Y25923654D01*
X36200000Y17576345D01*
X36106737Y17483082D01*
X35980884Y17294729D01*
X35894194Y17085443D01*
X35850000Y16863265D01*
X35850000Y16636735D01*
X35894194Y16414557D01*
X35980884Y16205271D01*
X36106737Y16016918D01*
X36200000Y15923655D01*
X36200001Y15076346D01*
X36106737Y14983082D01*
X35980884Y14794729D01*
X35894194Y14585443D01*
X35850000Y14363265D01*
X35850000Y14136735D01*
X35894194Y13914557D01*
X35980884Y13705271D01*
X36106737Y13516918D01*
X36223655Y13400000D01*
X35222999Y13400000D01*
X35044729Y13519116D01*
X34835443Y13605806D01*
X34613265Y13650000D01*
X34386735Y13650000D01*
X34164557Y13605806D01*
X33955271Y13519116D01*
X33766918Y13393263D01*
X33606737Y13233082D01*
X33480884Y13044729D01*
X33394194Y12835443D01*
X33350000Y12613265D01*
X23250000Y12613265D01*
X23250000Y17927204D01*
X23386735Y17900006D01*
X23613265Y17900006D01*
X23835443Y17944200D01*
X24044729Y18030890D01*
X24233082Y18156743D01*
X24393263Y18316924D01*
X24519116Y18505277D01*
X24605806Y18714563D01*
X24650000Y18936741D01*
X24650000Y19068630D01*
X25937902Y20356531D01*
X25968422Y20381578D01*
X25993469Y20412098D01*
X26068393Y20503393D01*
X26142679Y20642372D01*
X26154093Y20680000D01*
X26188424Y20793173D01*
X26200000Y20910707D01*
X26200000Y20910716D01*
X26203869Y20949999D01*
X26200000Y20989282D01*
X26200000Y21618630D01*
X26831371Y22250000D01*
X26963265Y22250000D01*
X27185443Y22294194D01*
X27394729Y22380884D01*
X27583082Y22506737D01*
X27743263Y22666918D01*
X27869116Y22855271D01*
X27955806Y23064557D01*
X28000000Y23286735D01*
X28000000Y23513265D01*
X27955806Y23735443D01*
X27869116Y23944729D01*
X27743263Y24133082D01*
X27583082Y24293263D01*
X27394729Y24419116D01*
X27185443Y24505806D01*
X26963265Y24550000D01*
X26736735Y24550000D01*
X26514557Y24505806D01*
X26305271Y24419116D01*
X26116918Y24293263D01*
X25956737Y24133082D01*
X25830884Y23944729D01*
X25744194Y23735443D01*
X25700000Y23513265D01*
X25700000Y23381371D01*
X24862103Y22543473D01*
X24831578Y22518422D01*
X24777151Y22452101D01*
X24731607Y22396606D01*
X24676867Y22294194D01*
X24657321Y22257627D01*
X24611576Y22106826D01*
X24600000Y21989293D01*
X24596130Y21950000D01*
X24600000Y21910709D01*
X24600001Y21281372D01*
X23518636Y20200006D01*
X23386735Y20200006D01*
X23164557Y20155812D01*
X22955271Y20069122D01*
X22766918Y19943269D01*
X22606737Y19783088D01*
X22480884Y19594735D01*
X22462289Y19549843D01*
X20450000Y21562132D01*
X20450000Y50113265D01*
X21600000Y50113265D01*
X21600000Y49886735D01*
X21644194Y49664557D01*
X21730884Y49455271D01*
X21856737Y49266918D01*
X21950001Y49173654D01*
X21950000Y38312099D01*
X21946130Y38272808D01*
X21950000Y38233517D01*
X21950000Y38233516D01*
X21961576Y38115982D01*
X21980562Y38053394D01*
X22007321Y37965181D01*
X22081607Y37826202D01*
X22127151Y37770707D01*
X22181578Y37704386D01*
X22212103Y37679335D01*
X22861404Y37030033D01*
X22861404Y36898139D01*
X22905598Y36675961D01*
X22992288Y36466675D01*
X23118141Y36278322D01*
X23278322Y36118141D01*
X23466675Y35992288D01*
X23675961Y35905598D01*
X23898139Y35861404D01*
X24124669Y35861404D01*
X24200000Y35876388D01*
X24200001Y30326358D01*
X24106737Y30233094D01*
X23980884Y30044741D01*
X23894194Y29835455D01*
X23850000Y29613277D01*
X23850000Y29386747D01*
X23894194Y29164569D01*
X23980884Y28955283D01*
X24106737Y28766930D01*
X24266918Y28606749D01*
X24455271Y28480896D01*
X24664557Y28394206D01*
X24886735Y28350012D01*
X25113265Y28350012D01*
X25335443Y28394206D01*
X25544729Y28480896D01*
X25733082Y28606749D01*
X25893263Y28766930D01*
X26019116Y28955283D01*
X26105806Y29164569D01*
X26150000Y29386747D01*
X26150000Y29613277D01*
X26105806Y29835455D01*
X26019116Y30044741D01*
X25893263Y30233094D01*
X25800000Y30326357D01*
X25800000Y37460709D01*
X25803870Y37500000D01*
X25798341Y37556133D01*
X25788424Y37656827D01*
X25742679Y37807628D01*
X25668394Y37946605D01*
X25668393Y37946607D01*
X25593470Y38037901D01*
X25593469Y38037902D01*
X25568422Y38068422D01*
X25537903Y38093468D01*
X25150000Y38481371D01*
X25150000Y38613265D01*
X25105806Y38835443D01*
X25019116Y39044729D01*
X24893263Y39233082D01*
X24733082Y39393263D01*
X24544729Y39519116D01*
X24335443Y39605806D01*
X24113265Y39650000D01*
X23886735Y39650000D01*
X23664557Y39605806D01*
X23550000Y39558354D01*
X23550000Y49173655D01*
X23643263Y49266918D01*
X23769116Y49455271D01*
X23855806Y49664557D01*
X23900000Y49886735D01*
X23900000Y50113265D01*
X23855806Y50335443D01*
X23769116Y50544729D01*
X23643263Y50733082D01*
X23483082Y50893263D01*
X23294729Y51019116D01*
X23085443Y51105806D01*
X22863265Y51150000D01*
X22636735Y51150000D01*
X22414557Y51105806D01*
X22205271Y51019116D01*
X22016918Y50893263D01*
X21856737Y50733082D01*
X21730884Y50544729D01*
X21644194Y50335443D01*
X21600000Y50113265D01*
X20450000Y50113265D01*
X20450000Y51750000D01*
X42350000Y51750000D01*
X42350000Y45000000D01*
G04 #@! TD*
M02*
