M48
;DRILL file {KiCad (5.0.0)} date 11/04/18 19:00:05
;FORMAT={-:-/ absolute / inch / decimal}
FMAT,2
INCH,TZ
T1C0.0197
T2C0.0394
%
G90
G05
M72
T1
X0.1575Y1.6339
X0.1575Y1.5354
X0.1575Y0.6299
X0.1575Y0.5315
X0.2756Y1.6339
X0.2756Y0.6299
X0.2756Y0.5315
X0.2795Y1.5315
X0.374Y1.4567
X0.374Y0.7874
X0.3937Y0.5315
X0.3937Y1.6339
X0.4134Y1.1417
X0.4626Y0.8888
X0.4724Y1.6929
X0.4724Y1.4567
X0.4921Y0.4528
X0.5315Y2.0079
X0.5315Y1.8898
X0.5315Y1.7717
X0.5315Y0.561
X0.5315Y0.2559
X0.5315Y0.1575
X0.5906Y1.4173
X0.6024Y0.8465
X0.6102Y0.5217
X0.6299Y2.0079
X0.689Y0.7598
X0.689Y0.561
X0.689Y0.3346
X0.689Y0.1575
X0.7087Y0.8366
X0.7283Y2.0079
X0.7283Y1.8898
X0.7283Y1.7717
X0.7283Y1.6535
X0.7283Y1.5354
X0.7283Y1.4173
X0.7598Y0.7677
X0.8071Y0.4724
X0.8366Y1.8898
X0.8366Y1.7717
X0.8366Y1.6535
X0.8366Y1.5354
X0.8366Y1.4173
X0.8465Y0.563
X0.8465Y0.2559
X0.8465Y0.1575
X0.8957Y1.9685
X0.9252Y0.75
X0.9449Y1.5157
X0.9449Y0.1575
X0.9453Y1.4571
X0.9567Y0.3307
X0.9843Y2.0197
X0.9843Y1.1614
X0.9961Y0.6732
X1.0059Y1.0906
X1.0571Y0.9213
X1.063Y1.8504
X1.063Y1.6969
X1.1417Y2.0197
X1.1929Y0.3386
X1.2303Y1.5453
X1.2303Y0.5118
X1.2598Y0.2559
X1.2598Y0.1575
X1.2992Y2.0197
X1.3583Y1.5472
X1.3583Y0.4921
X1.3583Y0.3346
X1.3937Y1.3504
X1.3937Y0.9528
X1.4075Y1.9587
X1.4173Y1.811
X1.4469Y0.2559
X1.4469Y0.1575
X1.4567Y1.0531
X1.4567Y0.6594
X1.4567Y0.561
X1.4764Y2.0177
X1.4764Y1.7028
X1.4764Y1.1122
X1.5354Y1.811
X1.5354Y1.6437
X1.5354Y0.7677
X1.5453Y1.9587
X1.5453Y1.3484
X1.5551Y1.1417
X1.5551Y1.0728
X1.5551Y0.5118
X1.5945Y0.8366
X1.5945Y0.7185
X1.6339Y2.0177
X1.6339Y1.8996
X1.6339Y0.2559
X1.6339Y0.1575
X1.6732Y1.437
X1.6732Y1.3287
X1.6929Y1.6929
X1.6929Y1.1417
X1.6929Y1.0433
X1.6929Y0.5118
X1.7028Y0.8366
X1.7028Y0.7185
X1.811Y1.6339
X1.811Y0.8366
X1.811Y0.7185
X1.8307Y1.437
X1.8307Y1.3287
X1.8406Y1.1417
X1.8406Y1.0433
T2
X1.0329Y0.2165
X1.1329Y0.2165
X1.9488Y1.6043
X1.9488Y1.5043
X0.2165Y1.4333
X0.2165Y1.3333
X0.2165Y1.2333
X0.2165Y1.1333
X0.2165Y1.0333
X0.2165Y0.9333
X0.2165Y0.8333
X0.2165Y0.7333
X1.9488Y1.2898
X1.9488Y1.1898
X1.9488Y0.9752
X1.9488Y0.8752
X1.9488Y0.6606
X1.9488Y0.5606
T0
M30
